<?xml version="1.0" encoding="UTF-8"?>
<svg id="Layer_2" data-name="Layer 2" xmlns="http://www.w3.org/2000/svg" viewBox="0 0 545.71 354.19">
  <defs>
    <style>
      .cls-1 {
        fill: #a1877a;
      }

      .cls-2 {
        fill: #c2e8fb;
      }

      .cls-3 {
        fill: #018971;
      }

      .cls-4 {
        fill: #fcf0b9;
      }

      .cls-5 {
        stroke: #a1877a;
      }

      .cls-5, .cls-6 {
        stroke-width: 5.9px;
      }

      .cls-5, .cls-6, .cls-7 {
        fill: none;
        stroke-linecap: round;
        stroke-linejoin: round;
      }

      .cls-8 {
        fill: #00806a;
      }

      .cls-9 {
        fill: #cdab84;
      }

      .cls-10 {
        fill: #f0d6a4;
      }

      .cls-11 {
        fill: #bd936a;
      }

      .cls-12 {
        fill: #6cb7da;
      }

      .cls-13 {
        fill: #00a388;
      }

      .cls-14 {
        fill: #456089;
      }

      .cls-15 {
        fill: #dec3a0;
      }

      .cls-16 {
        fill: #9ad9f7;
      }

      .cls-17 {
        fill: #038971;
      }

      .cls-18 {
        fill: #def2fc;
      }

      .cls-6, .cls-7 {
        stroke: #a28573;
      }

      .cls-7 {
        stroke-width: 7px;
      }

      .cls-19 {
        fill: #a28573;
      }

      .cls-20 {
        fill: #007762;
      }
    </style>
  </defs>
  <g id="Layer_1-2" data-name="Layer 1">
    <g id="Generative_Object" data-name="Generative Object">
      <g>
        <path class="cls-4" d="M51.63,74.62l2.84,2.79-24.24,48.09c-.64-.3-1.27-.59-1.91-.89-6.32-2.95-12.69-6.17-19.06-8.9,10.09-18.12,6.64-44.76,26.74-56.41,5.25,5.08,10.41,10.22,15.62,15.33Z"/>
        <path class="cls-9" d="M455.03,41.41c.13.76-.1,1.59,0,2.36,18.95-.19,33.32,14.24,50.62,17.29-.38,5.45-2.27,13.48-4.83,18.12-.22.4-.48.78-.71,1.18.23-.4.49-.78.71-1.18,10.96,8.28,13.87,28.83,20.3,38.36,2.7,4,.68,4.96,7.79,4.13-1.61,2.86-3.7,7.06-5.67,9.44-.32.39-.61.8-.94,1.18.33-.38.62-.79.94-1.18,9.3,4.88,6.06,38.37,8.5,41.9,1.09,1.58,8-.83,7,2.34-3.08.95-6.3,1.52-9.36,2.52,5.54,18.87-2.79,38.28-7.16,56.79,1.17.33,2.37.57,3.55.89l2.17,1.28c-6.95,16.31-31.79,41.81-48.63,48.08,10.52-18.64,17.4-34.83,19.97-56.31l3.02,1.08c2.02.52,4.05.99,6.07,1.52,7.86-28.71,7.2-59.33-.24-88.05-2.76.72-4.44.31-7.08-.35s-4.98-1.52-7.24-3.23c-2.39-9.04-10.72-26.7-17.11-33.38-.3-.32-.31-.91-.61-1.2-.28-.28-.77-.35-1.07-.63-1.61-1.51-25.25-15.52-26.78-15.84-.37-.08-.83.21-1.24.15-23.17-3.73-60.14,14.97-76.53,30.84-.83.8-5.06,5.34-5.16,5.71-3.55.68-2,1.31-4.72-.59-7-4.89-18.38-20.8-24.79-27.74,10.31-12.08,22.81-28.69,38.01-34.23.29.34.42.82.71,1.18,5.13-10.08,23.27-16.33,33.99-18.88,15.98-3.8,30.3-3.23,46.5-3.54Z"/>
        <path class="cls-4" d="M241.4,59.11c-7.5,13.7-21.09,24.94-31.87,36.59-9.14-11.73-23.4-21.05-33.05-31.28-1.46-1.55.39-5.98-1.77-6.49-.35-.08-4.14,2.38-7.08,1.18-8.78-3.58-20.92-12.03-29.86-16.52-.44.8-1.01,1.54-1.42,2.36-21.6-6.07-46.89-3.71-67.87,3.54-10.15,3.51-18.69,10.86-28.92,14.16-.68-2.99-.09-6.52-2.61-9.33l.39-1.35C51.73,27.63,69.81,15.88,97.44,7.16c45.8-14.45,113.28,17.82,143.96,51.95Z"/>
        <path class="cls-9" d="M209.53,95.7c-8.73,9.44-18.42,25.7-30.69,29.51-22.08-19.01-42.32-39.77-73.4-30.55-1.99-27.74-35.02-10.63-41.09,5.53-.78-.48-1.62-.89-2.36-1.42-6.79-4.76-11.31-9.03-15.82-16.05-2.13-3.33-2.87-7.03-4.25-10.62-.15-.4-.33-.78-.47-1.18-1.02-2.78-1.25-5.45-1.89-8.26,10.22-3.31,18.76-10.66,28.92-14.16,20.98-7.25,46.27-9.62,67.87-3.54.41-.82.98-1.56,1.42-2.36,8.94,4.5,21.08,12.95,29.86,16.52,2.94,1.2,6.73-1.26,7.08-1.18,2.16.51.31,4.94,1.77,6.49,9.65,10.22,23.9,19.55,33.05,31.28Z"/>
        <path class="cls-10" d="M437.96,4.65c.46.09.91.22,1.37.33l.4,3.67c6.33,10.25,13.24,20.62,15.3,32.76-16.2.31-30.52-.26-46.5,3.54-10.72,2.55-28.86,8.81-33.99,18.88-.29-.36-.42-.84-.71-1.18-15.2,5.54-27.69,22.15-38.01,34.23-4.59-4.98-29.36-29.09-30.69-32.46-.13-.33,1.68-4.55,0-6.49.26-.15,1.62-2.68,4.07-4.41,35.23-24.79,81.22-58.64,128.75-48.88Z"/>
        <path class="cls-10" d="M525.78,235.55c-1.18-.32-2.37-.56-3.55-.89,4.37-18.51,12.7-37.92,7.16-56.79,3.06-1,6.28-1.57,9.36-2.52,1-3.17-5.91-.76-7-2.34-2.44-3.53.8-37.03-8.5-41.9-.32.39-.61.8-.94,1.18.33-.38.62-.79.94-1.18,1.97-2.38,4.06-6.58,5.67-9.44-7.11.83-5.09-.13-7.79-4.13-6.43-9.53-9.34-30.08-20.3-38.36-.22.4-.48.78-.71,1.18.23-.4.49-.78.71-1.18,2.56-4.64,4.45-12.67,4.83-18.12-17.3-3.05-31.67-17.48-50.62-17.29-.1-.77.13-1.6,0-2.36-2.06-12.13-8.97-22.5-15.3-32.76l-.4-3.67c-.46-.1-.91-.23-1.37-.33.46.09.91.22,1.37.33,16.7,3.79,56.79,22.33,63.96,37.54.6,1.27.63,2.01.97,3.28.1.37.1.77.19,1.15l1.2-.09c33.31,63.02,51.61,117.87,22.73,188.75l-2.59-.06Z"/>
        <path class="cls-9" d="M105.44,94.66c-49.18,14.58-66.23,90.36-60.79,135.7l-2.77.61c-2.03.41-4.07.81-6.11,1.22-.42.08-.84.17-1.26.25.42-.08.84-.17,1.26-.25l-3.29-49.45-2.36-.76,7.08-38.37c.35.22.81.26,1.18.47.89-17.29,12.78-32.42,23.61-45.32.74.52,1.58.94,2.36,1.42,6.07-16.16,39.09-33.27,41.09-5.53Z"/>
        <path class="cls-4" d="M41.94,72.1c1.38,3.6,2.11,7.29,4.24,10.62-16.95,1.01-15.47,33.46-28.05,41.31,2.57,3.85,4,5.96,7.31,9.44.38.4.79.79,1.18,1.18-.39-.39-.8-.78-1.18-1.18-.88,3.48-6.25.15-7.07,1.77-3.78,7.41-2.21,32.32-4.71,41.44-2.73-.82-5.42-1.78-8.14-2.62l-2.34.72c-.82-9.98,1.63-53.31,4.85-61.36.94-2.36,1.02-2.92,3.8-3.74.3,1.49,1.46,3.24,2.01,4.84,12.49-10.53,9.81-39.32,27.64-43.61.15.4.32.78.47,1.18Z"/>
        <path class="cls-11" d="M499.3,228.6c2.82-23.51.55-66.22-5.46-89.03,2.26,1.71,4.5,2.54,7.24,3.23s4.32,1.07,7.08.35c7.44,28.72,8.09,59.34.24,88.05-2.02-.52-4.05-1-6.07-1.52l-3.02-1.08Z"/>
        <path class="cls-15" d="M21.86,234.98c4.14-1.03,8.45-1.69,12.65-2.53.42-.08.84-.17,1.26-.25,2.04-.41,4.08-.81,6.11-1.22l2.87.97c2.56,19.46,12.57,41.11,25.16,56.28l-1.59.88c-17.74-11.68-42.22-33.48-51.64-52.56l2.87-1.11c.77-.18,1.55-.27,2.31-.46Z"/>
        <path class="cls-4" d="M27.89,177.56l3.89.82,5.42,53.58c-.69.09-1.39.18-2.09.27-6.92.91-14.02,1.62-20.85,2.74-1.23-20.7-18.47-41.31-7.79-61.94,7.16,1.45,14.28,3.02,21.41,4.52Z"/>
        <path class="cls-10" d="M26.59,134.65c3.63,3.65,6.13,6.22,10.62,8.97l-7.08,38.37c-4.33-1.39-8.64-2.83-12.98-4.17-1.18-.37-2.35-.78-3.54-1.14,2.51-9.11.93-34.03,4.72-41.44.83-1.62,6.2,1.71,7.08-1.77.38.4.79.79,1.18,1.18Z"/>
        <g>
          <path class="cls-14" d="M305.14,57.93c1.68,1.95-.13,6.17,0,6.49,1.33,3.37,26.1,27.48,30.69,32.46,6.4,6.94,17.79,22.85,24.79,27.74,2.73,1.9,1.17,1.27,4.72.59-5.24,19.28,45.2,10.18,43.67,25.38-.21,2.05-15.17,36.22-16.52,37.77-5,5.74-29.91,6.61-31.87,11.8.57,9.32-.91,18.29-3.54,27.15-3.29,11.08-36.43,99.71-40.13,103.87-1.66,1.86-41.77,22.92-44.26,23.02-5.46.2-36.24-19.73-44.26-21.84-10.62-34.29-30.02-69.97-40.13-103.87-1.92-6.43-3.8-28.31-4.72-29.51-2.61-3.4-25.15-5.3-28.92-7.67-3.45-2.18-21.07-43.12-16.52-47.21,6.59-5.93,43.37-.58,40.72-18.88,12.27-3.81,21.96-20.07,30.69-29.51,10.77-11.65,24.37-22.89,31.87-36.59,16.28-1.95,32.65-1.09,48.98-1.18,5.34-.03,8.74,3.45,14.75,0Z"/>
          <g>
            <path class="cls-13" d="M272.09,67.37v245.5c-10.21,0-20.47,0-30.69,0l9.44-90.29-59.01-86.16c.18-4.55,57.82-64.82,61.97-66.69,3.37-1.52,14.08-2.19,18.29-2.36Z"/>
            <path class="cls-8" d="M282.71,67.37c2.61.36,4.94-.4,7.67,1.18l63.15,66.69-57.83,84.98,8.26,93.83c-10.34-2.16-21.37-1.18-31.87-1.18V67.37c3.11-.12,7.71-.4,10.62,0Z"/>
            <path class="cls-18" d="M292.15,65.01c-.49-.03-8.32,1.54-9.44,2.36-2.91-.4-7.51-.12-10.62,0-4.21.17-14.92.84-18.29,2.36-4.15,1.87-61.79,62.14-61.97,66.69l59.01,86.16-9.44,90.29c1.1,7.32,27.8,28.1,28.33,30.1.04.17-1.58,1.85-1.77,2.95l-31.28-17.11,2.36-103.87-57.83-84.98v-3.54c11.32-7.63,58.81-69.19,65.51-71.41,8.7-2.88,34.78,2.16,45.44,0Z"/>
            <path class="cls-16" d="M303.96,314.06l-8.26-93.83,57.83-84.98-63.15-66.69c-2.73-1.58-5.06-.82-7.67-1.18,1.13-.82,8.96-2.39,9.44-2.36,1.58.1,4.2-.37,5.31,0,6.79,2.24,55.12,64.89,66.69,72.59l-57.83,84.98,2.36,105.05c-.54,1.42-23.49,13.54-26.56,14.75-2.49.98-3.38,3.39-5.31.59l27.15-28.92Z"/>
            <path class="cls-20" d="M350.58,220.81l-35.41,96.78c2.51-13.75-5.38-53.83-1.77-64.33,1.15-3.34,33.59-25.95,37.18-32.46Z"/>
            <path class="cls-20" d="M193.6,220.81c5.02,6.87,36.9,29.47,38.36,34.82,3.23,11.84-4.16,46.37-1.77,60.79l-36.59-95.6Z"/>
            <path class="cls-17" d="M360.02,153.54l-8.26,63.74c-1.04-24.06-10.46-44.47,8.26-63.74Z"/>
            <path class="cls-3" d="M182.98,152.36c19.39,18.95,13.31,41.61,9.44,66.1l-9.44-66.1Z"/>
            <path class="cls-2" d="M171.17,142.91c6.4.89,6,13.12,5.9,18.88-2.54,1.91-27.83-9.07-31.28-12.39.06-1.31,24.08-6.67,25.38-6.49Z"/>
            <path class="cls-12" d="M370.64,142.91l27.74,6.49c-10.03,5.22-19.81,10.88-31.28,12.39l3.54-18.88Z"/>
            <path class="cls-8" d="M364.15,174.78c12.59-.05,23.76-3.33,29.51-15.34.27-.08,4.49-4.86,4.72-.59-7.74,19.97-11.38,26.41-34.82,25.38-.55-.3.42-8.9.59-9.44Z"/>
            <path class="cls-8" d="M154.06,160.62c-3.82-.97-.29,3.77,0,4.13,6.58,8.11,14.95,8.91,24.79,11.21.12.5,5.9,2.87.59,8.26-22.55-1.27-24.81-3.79-32.46-24.2.97-4.9,6.32.36,7.08.59Z"/>
            <path class="cls-13" d="M154.06,160.62c4.95,1.51,23.88,8.14,25.97,11.21.98,1.44-1.33,3.51-1.18,4.13-9.84-2.31-18.21-3.1-24.79-11.21-.29-.36-3.82-5.1,0-4.13Z"/>
            <path class="cls-13" d="M393.66,159.44c-5.74,12.01-16.92,15.3-29.51,15.34,2.15-6.7,21.68-13.04,29.51-15.34Z"/>
          </g>
        </g>
        <path class="cls-15" d="M46.18,82.72c4.5,7.02,9.02,11.29,15.82,16.05-10.82,12.9-22.72,28.04-23.61,45.32-.37-.21-.83-.26-1.18-.47-4.5-2.75-6.99-5.32-10.62-8.97-.39-.39-.8-.78-1.18-1.18-3.31-3.49-4.74-5.59-7.32-9.44,12.6-7.85,11.11-40.3,28.09-41.31Z"/>
      </g>
      <g>
        <path class="cls-19" d="M307.51,51.11c40.53-28.67,90.98-64.81,142.95-45.83,16.99,6.37,42.3,18.06,53.47,32.59,1.31,1.88,2.87,4.98,4,7.03,18.05,34.15,34.5,70.48,37.3,109.52,2.26,28.68-3.82,57.49-14.75,83.93-8.16,17.81-31.88,42.1-50.13,49.32-2.53.99-5.02-1.87-3.6-4.22,3.8-6.75,7.37-13.59,10.36-20.64,2.98-7.05,5.42-14.3,7.05-21.75,4.87-22.61,3.66-46.17,1.85-69.11-1.01-10.57-2.38-21.07-4.97-31.33-1.21-4.54-3-8.88-4.97-13.22-3.12-6.63-6.72-13.82-11.5-19.19,0,0-2-2.17-2-2.17s4.27-4.08,4.27-4.08l1.99,2.18c2.97,3.24,5.11,6.65,7.14,10.14,3.98,7.03,7.35,14.19,9.91,21.89,3.38,11.44,4.82,23.44,6,35.24,1.86,23.59,3.06,47.63-1.97,70.95-3.38,15.59-10.23,30.25-18.04,44,0,0-3.6-4.22-3.6-4.22,4.37-1.69,8.62-4.29,12.62-7.21,12.83-9.7,24.56-21.71,32.57-35.71,11.95-26.23,17.98-55.54,15.87-84.37-2.88-39.48-20.01-76.17-38.49-110.62-7.77-15.46-46.25-32.7-63.05-36.59-47.69-9.27-89.77,22.48-126.9,48.29,0,0-2.41,1.7-2.41,1.7,0,0-3.4-4.83-3.4-4.83,0,0,2.41-1.7,2.41-1.7h0Z"/>
        <path class="cls-6" d="M538.75,175.35c-3.08.95-6.3,1.52-9.36,2.52-8.46,2.77-17.38,4.32-25.89,6.97"/>
        <path class="cls-6" d="M503.43,42.59l.83,3.21c.1.37.1.77.19,1.15.82,3.47,1.46,10.57,1.21,14.11-.38,5.45-2.27,13.48-4.83,18.12-.22.4-.48.78-.71,1.18-6.34,10.88-14.06,17.32-24.02,24.63"/>
        <path class="cls-6" d="M533.61,113.62c-2.65,2.18-3.18,5.37-4.69,8.05-1.61,2.86-3.7,7.06-5.67,9.44-.32.39-.61.8-.94,1.18-3.16,3.62-9.55,9.66-14.16,10.86-2.76.72-4.44.31-7.08-.35"/>
        <path class="cls-19" d="M448.6,91.44c-.6.06-1.49.24-2.05.13-6.4-.97-13.24-.19-19.86,1.33-19.61,4.88-39.25,15.05-54.14,28.71,0,0-2.12,2.05-2.12,2.05,0,0-4.11-4.24-4.11-4.24l2.12-2.05c15.72-14.45,36.24-25.08,56.92-30.22,7.09-1.61,14.53-2.55,22.13-1.41,0,0-.81-.02-.81-.02.96-.12,3.21-.37,4.17-.49,0,0,.69,5.86.69,5.86,0,0-2.93.34-2.93.34h0Z"/>
        <path class="cls-6" d="M333.62,37.27c13.69,7.81,29.62,12.93,40.21,25.38.29.34.42.82.71,1.18,8.79,10.86,11.59,24.93,16.37,37.63"/>
        <path class="cls-7" d="M476.11,104.99l-1.07-.63c-1.61-1.51-25.25-15.52-26.78-15.84"/>
        <path class="cls-6" d="M382.55,12.59c10.16,9.59,19.73,19.69,25.98,32.36,6.72,13.61,6.9,30.1,4.78,44.81"/>
        <path class="cls-6" d="M439.74,8.65c6.33,10.25,13.24,20.62,15.3,32.76.13.76-.1,1.59,0,2.36,2.22,17.88-6.9,28.17-6.77,44.74"/>
        <path class="cls-6" d="M525.78,235.55c-1.18-.32-2.37-.56-3.55-.89-4.57-1.29-9.25-2.27-13.85-3.46-2.02-.52-4.05-1-6.07-1.52"/>
        <path class="cls-1" d="M176.92,127.45c-14.37-12.14-28.45-26.75-47.26-31.07-12.07-2.7-24.9.25-35.52,6.36-37.7,22.62-50.23,82.56-46.92,123.67.06.59.3,2.94.36,3.56.92,9.88,3.96,19.39,7.82,28.52,4.97,11.75,11.98,22.58,20.38,32.17,2.13,2.53-1.06,6.22-3.9,4.35,0,0-5.36-3.55-5.36-3.55-19.46-13.27-41.25-32.34-52.38-53.39-3.28-6.97-5.09-14.66-6.92-22.08-3.09-13.77-5.82-27.56-7.1-41.64-.18-3.26-.15-6.67-.07-9.9.4-14.07,1.22-28.05,3.04-42.01.38-2.74.82-5.59,1.54-8.29.39-1.29,1.09-3.39,1.47-4.65,0,0,5.45,2.18,5.45,2.18,0,0-.86,2.83-.86,2.83-.59,1.71-.99,3.84-1.29,5.65-2.21,14.65-3,29.61-3.46,44.41-.07,3.13-.11,6.28.06,9.38.39,5.22,1.21,10.44,2.03,15.66,2.09,12.53,4.57,25.09,8.17,37.26,1.16,3.79,2.64,7.84,4.66,11.26,6.19,10.73,15.03,20.21,24.12,28.75,9.26,8.63,19.48,16.38,30.14,23.2,0,0-3.9,4.35-3.9,4.35-1.98-2.33-4.42-5.3-6.26-7.67-11.9-15.9-21.18-36.22-23.27-56.09-4.72-44.12,8.7-108.74,49.46-133.04,11.87-6.84,26.19-10.04,39.73-7.02,20.02,4.51,34.84,19.6,49.86,32.36,0,0,2.24,1.93,2.24,1.93,0,0-3.85,4.47-3.85,4.47l-2.24-1.93h0Z"/>
        <path class="cls-5" d="M41.88,230.97c-2.03.41-4.07.81-6.11,1.22-.42.08-.84.17-1.26.25-4.19.84-8.5,1.5-12.65,2.53-.76.19-1.55.28-2.31.46"/>
        <path class="cls-5" d="M5.45,174.06c2.72.84,5.42,1.8,8.15,2.62,1.19.36,2.36.77,3.54,1.14,4.34,1.34,8.66,2.78,12.98,4.17l2.36.76c3.5,1.13,7.01,2.25,10.51,3.38"/>
        <path class="cls-5" d="M37.21,52.03l-.25,1.29c2.53,2.81,1.93,6.33,2.61,9.33.64,2.81.87,5.48,1.89,8.26.15.4.32.78.47,1.18,1.38,3.6,2.11,7.29,4.25,10.62,4.5,7.02,9.02,11.29,15.82,16.05.74.52,1.58.94,2.36,1.42,4.2,2.6,9.34,4.24,14.04,5.72"/>
        <path class="cls-5" d="M241.4,59.11C210.72,24.98,143.24-7.29,97.44,7.16c-27.64,8.72-45.71,20.47-60.1,44.81-4.32,7.31-25.52,45.43-26.46,50.71-.69,3.86.31,4.09.89,7,.3,1.49,1.46,3.24,2.01,4.84,1.03,3.02,2.56,6.89,4.31,9.5,2.57,3.85,4,5.96,7.32,9.44.38.4.79.79,1.18,1.18,3.63,3.65,6.13,6.22,10.62,8.97.35.22.81.26,1.18.47,3.98,2.3,9.63,3.06,14.11,4.04"/>
        <path class="cls-5" d="M162.98,13.96c-10.43,7.6-19,17.31-25.21,28.63-.44.8-1.01,1.54-1.42,2.36-6.63,13.35-6.94,30.47-4.5,44.84"/>
      </g>
    </g>
  </g>
</svg>