<svg width="512" height="512" viewBox="0 0 512 512" xmlns="http://www.w3.org/2000/svg">
  <!-- Outer circle -->
  <circle cx="256" cy="256" r="230" fill="none" stroke="#00A287" stroke-width="52"/>
  
  <!-- Three curved vertical bands that create the distinctive Oddball pattern -->
  <!-- Left curved band -->
  <path d="M 90 256 C 90 150, 150 90, 256 90 C 300 90, 340 110, 370 140 C 340 170, 300 190, 256 190 C 200 190, 155 235, 155 290 C 155 345, 200 390, 256 390 C 300 390, 340 370, 370 340 C 340 370, 300 390, 256 390 C 150 390, 90 330, 90 256 Z" fill="#00A287"/>
  
  <!-- Middle curved band -->
  <path d="M 140 256 C 140 180, 180 140, 256 140 C 285 140, 310 150, 330 170 C 310 190, 285 200, 256 200 C 215 200, 180 235, 180 275 C 180 315, 215 350, 256 350 C 285 350, 310 340, 330 320 C 310 340, 285 350, 256 350 C 180 350, 140 310, 140 256 Z" fill="#00A287"/>
  
  <!-- Right curved band -->
  <path d="M 190 256 C 190 210, 210 190, 256 190 C 270 190, 285 195, 295 205 C 285 215, 270 220, 256 220 C 230 220, 210 240, 210 265 C 210 290, 230 310, 256 310 C 270 310, 285 305, 295 295 C 285 305, 270 310, 256 310 C 210 310, 190 290, 190 256 Z" fill="#00A287"/>
</svg>
